<?xml version="1.0" encoding="UTF-8" standalone="no"?>
<!-- Created with Inkscape (http://www.inkscape.org/) -->

<svg
   xmlns:dc="http://purl.org/dc/elements/1.1/"
   xmlns:cc="http://creativecommons.org/ns#"
   xmlns:rdf="http://www.w3.org/1999/02/22-rdf-syntax-ns#"
   xmlns:svg="http://www.w3.org/2000/svg"
   xmlns="http://www.w3.org/2000/svg"
   xmlns:sodipodi="http://sodipodi.sourceforge.net/DTD/sodipodi-0.dtd"
   xmlns:inkscape="http://www.inkscape.org/namespaces/inkscape"
   width="1024px"
   height="768px"
   id="svg2985"
   version="1.1"
   inkscape:version="0.48.4 r9939"
   sodipodi:docname="main.svg">
  <defs
     id="defs2987" />
  <sodipodi:namedview
     id="base"
     pagecolor="#ffffff"
     bordercolor="#666666"
     borderopacity="1.0"
     inkscape:pageopacity="0.0"
     inkscape:pageshadow="2"
     inkscape:zoom="0.70710678"
     inkscape:cx="278.90231"
     inkscape:cy="529.67181"
     inkscape:current-layer="layer1"
     inkscape:document-units="px"
     showgrid="false"
     inkscape:window-width="1920"
     inkscape:window-height="1018"
     inkscape:window-x="-8"
     inkscape:window-y="-8"
     inkscape:window-maximized="1" />
  <metadata
     id="metadata2990">
    <rdf:RDF>
      <cc:Work
         rdf:about="">
        <dc:format>image/svg+xml</dc:format>
        <dc:type
           rdf:resource="http://purl.org/dc/dcmitype/StillImage" />
        <dc:title></dc:title>
      </cc:Work>
    </rdf:RDF>
  </metadata>
  <g
     id="layer1"
     inkscape:label="Layer 1"
     inkscape:groupmode="layer">
    <rect
       style="fill:#384154;fill-opacity:1;stroke:none"
       id="rect3779"
       width="1279.8633"
       height="882.4693"
       x="-162.63457"
       y="-121.54033" />
    <g
       id="g3801"
       transform="translate(-508,-156)">
      <path
         sodipodi:nodetypes="cccc"
         inkscape:connector-curvature="0"
         id="path2998"
         d="m 438,209.5 c -22.93671,28.91293 -34.16674,140.27486 -33.5,139.5 15.47678,-27.71311 29.22724,-62.37886 51.75,-76 z"
         style="fill:#f72a2a;fill-opacity:1;stroke:#000000;stroke-width:4;stroke-linecap:butt;stroke-linejoin:miter;stroke-miterlimit:4;stroke-opacity:1;stroke-dasharray:none" />
      <path
         style="fill:#f72a2a;fill-opacity:1;stroke:#000000;stroke-width:4;stroke-linecap:butt;stroke-linejoin:miter;stroke-miterlimit:4;stroke-opacity:1;stroke-dasharray:none"
         d="m 487.59697,209.5 c 22.93671,28.91293 34.16674,140.27486 33.5,139.5 -15.47678,-27.71311 -29.22724,-62.37886 -51.75,-76 z"
         id="path3005"
         inkscape:connector-curvature="0"
         sodipodi:nodetypes="cccc" />
      <path
         sodipodi:nodetypes="scscs"
         inkscape:connector-curvature="0"
         id="path2993"
         d="m 489.67371,190.29376 c 0,55.78161 -26.51877,101.00154 -26.51877,101.00154 0,0 -26.51878,-45.21993 -26.51878,-101.00154 0,-55.78161 26.51878,-101.001534 26.51878,-101.001534 0,0 26.51877,45.219924 26.51877,101.001534 z"
         style="fill:#bac2c1;fill-opacity:1;stroke:#000000;stroke-width:4;stroke-linecap:square;stroke-miterlimit:4;stroke-opacity:1;stroke-dasharray:none" />
      <path
         transform="matrix(0.8503185,0,0,0.8503185,63.717823,23.612256)"
         d="m 484.5,157.75 c 0,8.1462 -6.6038,14.75 -14.75,14.75 -8.1462,0 -14.75,-6.6038 -14.75,-14.75 0,-8.1462 6.6038,-14.75 14.75,-14.75 8.1462,0 14.75,6.6038 14.75,14.75 z"
         sodipodi:ry="14.75"
         sodipodi:rx="14.75"
         sodipodi:cy="157.75"
         sodipodi:cx="469.75"
         id="path2996"
         style="fill:#4667da;fill-opacity:1;stroke:#000000;stroke-width:4.70411968;stroke-linecap:square;stroke-miterlimit:4;stroke-opacity:1;stroke-dasharray:none"
         sodipodi:type="arc" />
      <path
         style="fill:#505050;fill-opacity:1;stroke:#000000;stroke-width:4;stroke-linecap:square;stroke-miterlimit:4;stroke-opacity:1;stroke-dasharray:none"
         d="m 454.89148,291.94035 16.52691,0 14,35.17857 -44.52691,0 z"
         id="path3793"
         inkscape:connector-curvature="0"
         sodipodi:nodetypes="ccccc" />
      <path
         sodipodi:nodetypes="ccccc"
         inkscape:connector-curvature="0"
         id="rect3002"
         d="m 454.89148,277.26788 16.52691,0 14,35.17857 -44.52691,0 z"
         style="fill:#505050;fill-opacity:1;stroke:#000000;stroke-width:4;stroke-linecap:square;stroke-miterlimit:4;stroke-opacity:1;stroke-dasharray:none" />
      <path
         sodipodi:nodetypes="cc"
         inkscape:connector-curvature="0"
         id="path3783"
         d="m 440.07843,180.25 c 15.09416,8.53745 30.18832,6.03722 45.28248,0"
         style="fill:none;stroke:#969696;stroke-width:1px;stroke-linecap:butt;stroke-linejoin:miter;stroke-opacity:1" />
      <path
         sodipodi:nodetypes="cc"
         inkscape:connector-curvature="0"
         id="path3785"
         d="m 442.10876,212.25 c 13.28388,4.91388 26.88115,7.0072 41.48959,0"
         style="fill:none;stroke:#969696;stroke-width:1px;stroke-linecap:butt;stroke-linejoin:miter;stroke-opacity:1" />
      <path
         sodipodi:nodetypes="cc"
         inkscape:connector-curvature="0"
         id="path3789"
         d="m 450.75,127 c 7.66667,3.21566 15.33333,2.77766 23,0"
         style="fill:none;stroke:#c5c5c5;stroke-width:1px;stroke-linecap:butt;stroke-linejoin:miter;stroke-opacity:1" />
      <path
         transform="matrix(2.5026019,0,0,2.5026019,-691.37502,-231.34202)"
         d="m 461.03363,153.87776 c 0,0.78105 -0.63317,1.41422 -1.41421,1.41422 -0.78105,0 -1.41422,-0.63317 -1.41422,-1.41422 0,-0.78105 0.63317,-1.41421 1.41422,-1.41421 0.78104,0 1.41421,0.63316 1.41421,1.41421 z"
         sodipodi:ry="1.4142135"
         sodipodi:rx="1.4142135"
         sodipodi:cy="153.87776"
         sodipodi:cx="459.61942"
         id="path3791"
         style="fill:#ffffff;fill-opacity:1;stroke:none"
         sodipodi:type="arc" />
      <text
         transform="matrix(0.34788094,-1.1520202,0.82707852,0.13564649,0,0)"
         sodipodi:linespacing="125%"
         id="text3795"
         y="635.75781"
         x="-158.53819"
         style="font-size:7.17847109px;font-style:normal;font-weight:normal;line-height:125%;letter-spacing:0px;word-spacing:0px;fill:#f72a2a;fill-opacity:1;stroke:none;font-family:Sans"
         xml:space="preserve"><tspan
           style="font-style:normal;font-variant:normal;font-weight:bold;font-stretch:normal;fill:#f72a2a;fill-opacity:1;stroke:none;font-family:Courier New;-inkscape-font-specification:Courier New Bold"
           y="635.75781"
           x="-158.53819"
           id="tspan3797"
           sodipodi:role="line">Бозон-1</tspan></text>
    </g>
    <path
       sodipodi:type="arc"
       style="fill:#f72a2a;fill-opacity:1;stroke:none"
       id="path3815"
       sodipodi:cx="316"
       sodipodi:cy="63"
       sodipodi:rx="175"
       sodipodi:ry="175"
       d="m 491,63 a 175,175 0 1 1 -350,0 175,175 0 1 1 350,0 z" />
    <path
       d="m 491,63 a 175,175 0 1 1 -350,0 175,175 0 1 1 350,0 z"
       sodipodi:ry="175"
       sodipodi:rx="175"
       sodipodi:cy="63"
       sodipodi:cx="316"
       id="path3817"
       style="fill:#06b67e;fill-opacity:1;stroke:none"
       sodipodi:type="arc"
       transform="translate(403,0)" />
    <path
       transform="translate(403,378)"
       sodipodi:type="arc"
       style="fill:#078fc6;fill-opacity:1;stroke:none"
       id="path3819"
       sodipodi:cx="316"
       sodipodi:cy="63"
       sodipodi:rx="175"
       sodipodi:ry="175"
       d="m 491,63 a 175,175 0 1 1 -350,0 175,175 0 1 1 350,0 z" />
  </g>
</svg>
